<svg xmlns="http://www.w3.org/2000/svg" version="1.1" xmlns:xlink="http://www.w3.org/1999/xlink" xmlns:svgjs="http://svgjs.com/svgjs" width="1440" height="800" preserveAspectRatio="none" viewBox="0 0 1440 800"><g mask="url(&quot;#SvgjsMask1320&quot;)" fill="none"><rect width="1440" height="800" x="0" y="0" fill="url(#SvgjsLinearGradient1321)"></rect><path d="M-93.93 684.5L-93.93 684.5" stroke="#132e65" stroke-width="1.5"></path><path d="M-93.93 684.5L-47.22 829.52" stroke="#132e65" stroke-width="1.5"></path><path d="M-93.93 684.5L98.63 686.98" stroke="#132e65" stroke-width="1.5"></path><path d="M-93.93 684.5L87.61 819.66" stroke="#132e65" stroke-width="1.5"></path><path d="M-93.93 684.5L108.38 506.96" stroke="#132e65" stroke-width="1.5"></path><path d="M-93.93 684.5L189.39 696.69" stroke="#132e65" stroke-width="1.5"></path><path d="M-93.93 684.5L-62.64 967.89" stroke="#132e65" stroke-width="1.5"></path><path d="M-47.22 829.52L-47.22 829.52" stroke="#132e65" stroke-width="1.5"></path><path d="M-47.22 829.52L87.61 819.66" stroke="#132e65" stroke-width="1.5"></path><path d="M-47.22 829.52L-62.64 967.89" stroke="#132e65" stroke-width="1.5"></path><path d="M-47.22 829.52L98.63 686.98" stroke="#132e65" stroke-width="1.5"></path><path d="M-47.22 829.52L62.4 1012.26" stroke="#132e65" stroke-width="1.5"></path><path d="M-47.22 829.52L200.02 827.72" stroke="#132e65" stroke-width="1.5"></path><path d="M-62.64 967.89L-62.64 967.89" stroke="#132e65" stroke-width="1.5"></path><path d="M-62.64 967.89L62.4 1012.26" stroke="#132e65" stroke-width="1.5"></path><path d="M-62.64 967.89L87.61 819.66" stroke="#132e65" stroke-width="1.5"></path><path d="M-62.64 967.89L200.02 827.72" stroke="#132e65" stroke-width="1.5"></path><path d="M-62.64 967.89L239.3 977.34" stroke="#132e65" stroke-width="1.5"></path><path d="M108.38 506.96L108.38 506.96" stroke="#132e65" stroke-width="1.5"></path><path d="M108.38 506.96L224.4 507.78" stroke="#132e65" stroke-width="1.5"></path><path d="M108.38 506.96L98.63 686.98" stroke="#132e65" stroke-width="1.5"></path><path d="M108.38 506.96L189.39 696.69" stroke="#132e65" stroke-width="1.5"></path><path d="M108.38 506.96L406.32 530.79" stroke="#132e65" stroke-width="1.5"></path><path d="M108.38 506.96L87.61 819.66" stroke="#132e65" stroke-width="1.5"></path><path d="M98.63 686.98L98.63 686.98" stroke="#132e65" stroke-width="1.5"></path><path d="M98.63 686.98L189.39 696.69" stroke="#132e65" stroke-width="1.5"></path><path d="M98.63 686.98L87.61 819.66" stroke="#132e65" stroke-width="1.5"></path><path d="M98.63 686.98L200.02 827.72" stroke="#132e65" stroke-width="1.5"></path><path d="M87.61 819.66L87.61 819.66" stroke="#132e65" stroke-width="1.5"></path><path d="M87.61 819.66L200.02 827.72" stroke="#132e65" stroke-width="1.5"></path><path d="M87.61 819.66L189.39 696.69" stroke="#132e65" stroke-width="1.5"></path><path d="M87.61 819.66L62.4 1012.26" stroke="#132e65" stroke-width="1.5"></path><path d="M62.4 1012.26L62.4 1012.26" stroke="#132e65" stroke-width="1.5"></path><path d="M62.4 1012.26L239.3 977.34" stroke="#132e65" stroke-width="1.5"></path><path d="M62.4 1012.26L200.02 827.72" stroke="#132e65" stroke-width="1.5"></path><path d="M62.4 1012.26L382.57 946.61" stroke="#132e65" stroke-width="1.5"></path><path d="M224.4 507.78L224.4 507.78" stroke="#132e65" stroke-width="1.5"></path><path d="M224.4 507.78L406.32 530.79" stroke="#132e65" stroke-width="1.5"></path><path d="M224.4 507.78L189.39 696.69" stroke="#132e65" stroke-width="1.5"></path><path d="M224.4 507.78L98.63 686.98" stroke="#132e65" stroke-width="1.5"></path><path d="M189.39 696.69L189.39 696.69" stroke="#132e65" stroke-width="1.5"></path><path d="M189.39 696.69L200.02 827.72" stroke="#132e65" stroke-width="1.5"></path><path d="M189.39 696.69L364.92 696.89" stroke="#132e65" stroke-width="1.5"></path><path d="M200.02 827.72L200.02 827.72" stroke="#132e65" stroke-width="1.5"></path><path d="M200.02 827.72L239.3 977.34" stroke="#132e65" stroke-width="1.5"></path><path d="M200.02 827.72L363.49 858.92" stroke="#132e65" stroke-width="1.5"></path><path d="M239.3 977.34L239.3 977.34" stroke="#132e65" stroke-width="1.5"></path><path d="M239.3 977.34L382.57 946.61" stroke="#132e65" stroke-width="1.5"></path><path d="M239.3 977.34L363.49 858.92" stroke="#132e65" stroke-width="1.5"></path><path d="M406.32 530.79L406.32 530.79" stroke="#132e65" stroke-width="1.5"></path><path d="M406.32 530.79L488.81 516.56" stroke="#132e65" stroke-width="1.5"></path><path d="M406.32 530.79L364.92 696.89" stroke="#132e65" stroke-width="1.5"></path><path d="M406.32 530.79L561.5 646.31" stroke="#132e65" stroke-width="1.5"></path><path d="M406.32 530.79L189.39 696.69" stroke="#132e65" stroke-width="1.5"></path><path d="M406.32 530.79L523.82 795.29" stroke="#132e65" stroke-width="1.5"></path><path d="M364.92 696.89L364.92 696.89" stroke="#132e65" stroke-width="1.5"></path><path d="M364.92 696.89L363.49 858.92" stroke="#132e65" stroke-width="1.5"></path><path d="M363.49 858.92L363.49 858.92" stroke="#132e65" stroke-width="1.5"></path><path d="M363.49 858.92L382.57 946.61" stroke="#132e65" stroke-width="1.5"></path><path d="M363.49 858.92L497.09 940.47" stroke="#132e65" stroke-width="1.5"></path><path d="M382.57 946.61L382.57 946.61" stroke="#132e65" stroke-width="1.5"></path><path d="M382.57 946.61L497.09 940.47" stroke="#132e65" stroke-width="1.5"></path><path d="M382.57 946.61L523.82 795.29" stroke="#132e65" stroke-width="1.5"></path><path d="M488.81 516.56L488.81 516.56" stroke="#132e65" stroke-width="1.5"></path><path d="M488.81 516.56L561.5 646.31" stroke="#132e65" stroke-width="1.5"></path><path d="M561.5 646.31L561.5 646.31" stroke="#132e65" stroke-width="1.5"></path><path d="M561.5 646.31L705.37 690.2" stroke="#132e65" stroke-width="1.5"></path><path d="M561.5 646.31L523.82 795.29" stroke="#132e65" stroke-width="1.5"></path><path d="M561.5 646.31L710.04 524.92" stroke="#132e65" stroke-width="1.5"></path><path d="M523.82 795.29L523.82 795.29" stroke="#132e65" stroke-width="1.5"></path><path d="M523.82 795.29L497.09 940.47" stroke="#132e65" stroke-width="1.5"></path><path d="M523.82 795.29L363.49 858.92" stroke="#132e65" stroke-width="1.5"></path><path d="M523.82 795.29L364.92 696.89" stroke="#132e65" stroke-width="1.5"></path><path d="M523.82 795.29L711.89 824.07" stroke="#132e65" stroke-width="1.5"></path><path d="M497.09 940.47L497.09 940.47" stroke="#132e65" stroke-width="1.5"></path><path d="M497.09 940.47L690.88 938.4" stroke="#132e65" stroke-width="1.5"></path><path d="M651.05 354.95L651.05 354.95" stroke="#132e65" stroke-width="1.5"></path><path d="M651.05 354.95L710.04 524.92" stroke="#132e65" stroke-width="1.5"></path><path d="M651.05 354.95L858.11 387.47" stroke="#132e65" stroke-width="1.5"></path><path d="M651.05 354.95L488.81 516.56" stroke="#132e65" stroke-width="1.5"></path><path d="M651.05 354.95L842.89 219.22" stroke="#132e65" stroke-width="1.5"></path><path d="M651.05 354.95L829.38 526.07" stroke="#132e65" stroke-width="1.5"></path><path d="M710.04 524.92L710.04 524.92" stroke="#132e65" stroke-width="1.5"></path><path d="M710.04 524.92L829.38 526.07" stroke="#132e65" stroke-width="1.5"></path><path d="M710.04 524.92L705.37 690.2" stroke="#132e65" stroke-width="1.5"></path><path d="M705.37 690.2L705.37 690.2" stroke="#132e65" stroke-width="1.5"></path><path d="M705.37 690.2L711.89 824.07" stroke="#132e65" stroke-width="1.5"></path><path d="M711.89 824.07L711.89 824.07" stroke="#132e65" stroke-width="1.5"></path><path d="M711.89 824.07L810.3 851.35" stroke="#132e65" stroke-width="1.5"></path><path d="M711.89 824.07L690.88 938.4" stroke="#132e65" stroke-width="1.5"></path><path d="M711.89 824.07L862.44 990.65" stroke="#132e65" stroke-width="1.5"></path><path d="M711.89 824.07L561.5 646.31" stroke="#132e65" stroke-width="1.5"></path><path d="M690.88 938.4L690.88 938.4" stroke="#132e65" stroke-width="1.5"></path><path d="M842.89 219.22L842.89 219.22" stroke="#132e65" stroke-width="1.5"></path><path d="M842.89 219.22L1006.26 248.27" stroke="#132e65" stroke-width="1.5"></path><path d="M842.89 219.22L858.11 387.47" stroke="#132e65" stroke-width="1.5"></path><path d="M858.11 387.47L858.11 387.47" stroke="#132e65" stroke-width="1.5"></path><path d="M858.11 387.47L829.38 526.07" stroke="#132e65" stroke-width="1.5"></path><path d="M858.11 387.47L1007.18 398.65" stroke="#132e65" stroke-width="1.5"></path><path d="M858.11 387.47L710.04 524.92" stroke="#132e65" stroke-width="1.5"></path><path d="M858.11 387.47L1006.26 248.27" stroke="#132e65" stroke-width="1.5"></path><path d="M829.38 526.07L829.38 526.07" stroke="#132e65" stroke-width="1.5"></path><path d="M829.38 526.07L705.37 690.2" stroke="#132e65" stroke-width="1.5"></path><path d="M829.38 526.07L955.92 697.27" stroke="#132e65" stroke-width="1.5"></path><path d="M829.38 526.07L1007.18 398.65" stroke="#132e65" stroke-width="1.5"></path><path d="M810.3 851.35L810.3 851.35" stroke="#132e65" stroke-width="1.5"></path><path d="M810.3 851.35L948.57 814.7" stroke="#132e65" stroke-width="1.5"></path><path d="M810.3 851.35L690.88 938.4" stroke="#132e65" stroke-width="1.5"></path><path d="M810.3 851.35L862.44 990.65" stroke="#132e65" stroke-width="1.5"></path><path d="M810.3 851.35L705.37 690.2" stroke="#132e65" stroke-width="1.5"></path><path d="M810.3 851.35L955.92 697.27" stroke="#132e65" stroke-width="1.5"></path><path d="M862.44 990.65L862.44 990.65" stroke="#132e65" stroke-width="1.5"></path><path d="M862.44 990.65L990.59 964.61" stroke="#132e65" stroke-width="1.5"></path><path d="M862.44 990.65L690.88 938.4" stroke="#132e65" stroke-width="1.5"></path><path d="M862.44 990.65L948.57 814.7" stroke="#132e65" stroke-width="1.5"></path><path d="M862.44 990.65L1103.9 831.09" stroke="#132e65" stroke-width="1.5"></path><path d="M975.4 58.63L975.4 58.63" stroke="#132e65" stroke-width="1.5"></path><path d="M975.4 58.63L1118.12 44.58" stroke="#132e65" stroke-width="1.5"></path><path d="M975.4 58.63L1105.43 -47.99" stroke="#132e65" stroke-width="1.5"></path><path d="M975.4 58.63L1006.26 248.27" stroke="#132e65" stroke-width="1.5"></path><path d="M975.4 58.63L1128.58 192.85" stroke="#132e65" stroke-width="1.5"></path><path d="M975.4 58.63L842.89 219.22" stroke="#132e65" stroke-width="1.5"></path><path d="M1006.26 248.27L1006.26 248.27" stroke="#132e65" stroke-width="1.5"></path><path d="M1006.26 248.27L1128.58 192.85" stroke="#132e65" stroke-width="1.5"></path><path d="M1006.26 248.27L1007.18 398.65" stroke="#132e65" stroke-width="1.5"></path><path d="M1006.26 248.27L1156.52 340.94" stroke="#132e65" stroke-width="1.5"></path><path d="M1007.18 398.65L1007.18 398.65" stroke="#132e65" stroke-width="1.5"></path><path d="M955.92 697.27L955.92 697.27" stroke="#132e65" stroke-width="1.5"></path><path d="M955.92 697.27L948.57 814.7" stroke="#132e65" stroke-width="1.5"></path><path d="M955.92 697.27L1108.8 709.5" stroke="#132e65" stroke-width="1.5"></path><path d="M955.92 697.27L1103.9 831.09" stroke="#132e65" stroke-width="1.5"></path><path d="M955.92 697.27L1110.45 525.11" stroke="#132e65" stroke-width="1.5"></path><path d="M948.57 814.7L948.57 814.7" stroke="#132e65" stroke-width="1.5"></path><path d="M990.59 964.61L990.59 964.61" stroke="#132e65" stroke-width="1.5"></path><path d="M990.59 964.61L948.57 814.7" stroke="#132e65" stroke-width="1.5"></path><path d="M990.59 964.61L1103.9 831.09" stroke="#132e65" stroke-width="1.5"></path><path d="M990.59 964.61L810.3 851.35" stroke="#132e65" stroke-width="1.5"></path><path d="M990.59 964.61L1241.17 972.8" stroke="#132e65" stroke-width="1.5"></path><path d="M990.59 964.61L955.92 697.27" stroke="#132e65" stroke-width="1.5"></path><path d="M1105.43 -47.99L1105.43 -47.99" stroke="#132e65" stroke-width="1.5"></path><path d="M1105.43 -47.99L1118.12 44.58" stroke="#132e65" stroke-width="1.5"></path><path d="M1105.43 -47.99L1266.5 73.88" stroke="#132e65" stroke-width="1.5"></path><path d="M1118.12 44.58L1118.12 44.58" stroke="#132e65" stroke-width="1.5"></path><path d="M1128.58 192.85L1128.58 192.85" stroke="#132e65" stroke-width="1.5"></path><path d="M1128.58 192.85L1118.12 44.58" stroke="#132e65" stroke-width="1.5"></path><path d="M1128.58 192.85L1156.52 340.94" stroke="#132e65" stroke-width="1.5"></path><path d="M1128.58 192.85L1266.5 73.88" stroke="#132e65" stroke-width="1.5"></path><path d="M1156.52 340.94L1156.52 340.94" stroke="#132e65" stroke-width="1.5"></path><path d="M1156.52 340.94L1245.63 367.73" stroke="#132e65" stroke-width="1.5"></path><path d="M1156.52 340.94L1007.18 398.65" stroke="#132e65" stroke-width="1.5"></path><path d="M1110.45 525.11L1110.45 525.11" stroke="#132e65" stroke-width="1.5"></path><path d="M1110.45 525.11L1249.41 508.58" stroke="#132e65" stroke-width="1.5"></path><path d="M1110.45 525.11L1007.18 398.65" stroke="#132e65" stroke-width="1.5"></path><path d="M1108.8 709.5L1108.8 709.5" stroke="#132e65" stroke-width="1.5"></path><path d="M1108.8 709.5L1103.9 831.09" stroke="#132e65" stroke-width="1.5"></path><path d="M1108.8 709.5L1279.95 652.17" stroke="#132e65" stroke-width="1.5"></path><path d="M1108.8 709.5L1110.45 525.11" stroke="#132e65" stroke-width="1.5"></path><path d="M1108.8 709.5L948.57 814.7" stroke="#132e65" stroke-width="1.5"></path><path d="M1108.8 709.5L1299.1 831.12" stroke="#132e65" stroke-width="1.5"></path><path d="M1103.9 831.09L1103.9 831.09" stroke="#132e65" stroke-width="1.5"></path><path d="M1103.9 831.09L948.57 814.7" stroke="#132e65" stroke-width="1.5"></path><path d="M1103.9 831.09L1299.1 831.12" stroke="#132e65" stroke-width="1.5"></path><path d="M1266.5 73.88L1266.5 73.88" stroke="#132e65" stroke-width="1.5"></path><path d="M1266.5 73.88L1118.12 44.58" stroke="#132e65" stroke-width="1.5"></path><path d="M1266.5 73.88L1421.17 87.53" stroke="#132e65" stroke-width="1.5"></path><path d="M1266.5 73.88L1458.88 -68.36" stroke="#132e65" stroke-width="1.5"></path><path d="M1245.63 367.73L1245.63 367.73" stroke="#132e65" stroke-width="1.5"></path><path d="M1245.63 367.73L1249.41 508.58" stroke="#132e65" stroke-width="1.5"></path><path d="M1249.41 508.58L1249.41 508.58" stroke="#132e65" stroke-width="1.5"></path><path d="M1249.41 508.58L1279.95 652.17" stroke="#132e65" stroke-width="1.5"></path><path d="M1279.95 652.17L1279.95 652.17" stroke="#132e65" stroke-width="1.5"></path><path d="M1279.95 652.17L1394.32 664.51" stroke="#132e65" stroke-width="1.5"></path><path d="M1279.95 652.17L1420.84 548.16" stroke="#132e65" stroke-width="1.5"></path><path d="M1279.95 652.17L1299.1 831.12" stroke="#132e65" stroke-width="1.5"></path><path d="M1279.95 652.17L1405.13 788.18" stroke="#132e65" stroke-width="1.5"></path><path d="M1299.1 831.12L1299.1 831.12" stroke="#132e65" stroke-width="1.5"></path><path d="M1299.1 831.12L1405.13 788.18" stroke="#132e65" stroke-width="1.5"></path><path d="M1299.1 831.12L1241.17 972.8" stroke="#132e65" stroke-width="1.5"></path><path d="M1299.1 831.12L1394.32 664.51" stroke="#132e65" stroke-width="1.5"></path><path d="M1241.17 972.8L1241.17 972.8" stroke="#132e65" stroke-width="1.5"></path><path d="M1241.17 972.8L1402.04 995.59" stroke="#132e65" stroke-width="1.5"></path><path d="M1241.17 972.8L1103.9 831.09" stroke="#132e65" stroke-width="1.5"></path><path d="M1458.88 -68.36L1458.88 -68.36" stroke="#132e65" stroke-width="1.5"></path><path d="M1458.88 -68.36L1572.59 -74.13" stroke="#132e65" stroke-width="1.5"></path><path d="M1458.88 -68.36L1566.38 49.57" stroke="#132e65" stroke-width="1.5"></path><path d="M1458.88 -68.36L1421.17 87.53" stroke="#132e65" stroke-width="1.5"></path><path d="M1421.17 87.53L1421.17 87.53" stroke="#132e65" stroke-width="1.5"></path><path d="M1421.17 87.53L1566.38 49.57" stroke="#132e65" stroke-width="1.5"></path><path d="M1421.17 87.53L1606.4 202.5" stroke="#132e65" stroke-width="1.5"></path><path d="M1421.27 353.57L1421.27 353.57" stroke="#132e65" stroke-width="1.5"></path><path d="M1421.27 353.57L1245.63 367.73" stroke="#132e65" stroke-width="1.5"></path><path d="M1421.27 353.57L1420.84 548.16" stroke="#132e65" stroke-width="1.5"></path><path d="M1421.27 353.57L1249.41 508.58" stroke="#132e65" stroke-width="1.5"></path><path d="M1420.84 548.16L1420.84 548.16" stroke="#132e65" stroke-width="1.5"></path><path d="M1420.84 548.16L1394.32 664.51" stroke="#132e65" stroke-width="1.5"></path><path d="M1420.84 548.16L1249.41 508.58" stroke="#132e65" stroke-width="1.5"></path><path d="M1420.84 548.16L1574.05 641.53" stroke="#132e65" stroke-width="1.5"></path><path d="M1394.32 664.51L1394.32 664.51" stroke="#132e65" stroke-width="1.5"></path><path d="M1394.32 664.51L1405.13 788.18" stroke="#132e65" stroke-width="1.5"></path><path d="M1394.32 664.51L1574.05 641.53" stroke="#132e65" stroke-width="1.5"></path><path d="M1405.13 788.18L1405.13 788.18" stroke="#132e65" stroke-width="1.5"></path><path d="M1405.13 788.18L1562.72 838.48" stroke="#132e65" stroke-width="1.5"></path><path d="M1402.04 995.59L1402.04 995.59" stroke="#132e65" stroke-width="1.5"></path><path d="M1402.04 995.59L1299.1 831.12" stroke="#132e65" stroke-width="1.5"></path><path d="M1402.04 995.59L1405.13 788.18" stroke="#132e65" stroke-width="1.5"></path><path d="M1402.04 995.59L1562.72 838.48" stroke="#132e65" stroke-width="1.5"></path><path d="M1402.04 995.59L1394.32 664.51" stroke="#132e65" stroke-width="1.5"></path><path d="M1402.04 995.59L1103.9 831.09" stroke="#132e65" stroke-width="1.5"></path><path d="M1572.59 -74.13L1572.59 -74.13" stroke="#132e65" stroke-width="1.5"></path><path d="M1572.59 -74.13L1566.38 49.57" stroke="#132e65" stroke-width="1.5"></path><path d="M1572.59 -74.13L1421.17 87.53" stroke="#132e65" stroke-width="1.5"></path><path d="M1572.59 -74.13L1606.4 202.5" stroke="#132e65" stroke-width="1.5"></path><path d="M1572.59 -74.13L1266.5 73.88" stroke="#132e65" stroke-width="1.5"></path><path d="M1572.59 -74.13L1421.27 353.57" stroke="#132e65" stroke-width="1.5"></path><path d="M1566.38 49.57L1566.38 49.57" stroke="#132e65" stroke-width="1.5"></path><path d="M1566.38 49.57L1606.4 202.5" stroke="#132e65" stroke-width="1.5"></path><path d="M1566.38 49.57L1266.5 73.88" stroke="#132e65" stroke-width="1.5"></path><path d="M1566.38 49.57L1421.27 353.57" stroke="#132e65" stroke-width="1.5"></path><path d="M1606.4 202.5L1606.4 202.5" stroke="#132e65" stroke-width="1.5"></path><path d="M1606.4 202.5L1421.27 353.57" stroke="#132e65" stroke-width="1.5"></path><path d="M1574.05 641.53L1574.05 641.53" stroke="#132e65" stroke-width="1.5"></path><path d="M1574.05 641.53L1562.72 838.48" stroke="#132e65" stroke-width="1.5"></path><path d="M1574.05 641.53L1405.13 788.18" stroke="#132e65" stroke-width="1.5"></path><path d="M1574.05 641.53L1279.95 652.17" stroke="#132e65" stroke-width="1.5"></path><path d="M1574.05 641.53L1421.27 353.57" stroke="#132e65" stroke-width="1.5"></path><path d="M1562.72 838.48L1562.72 838.48" stroke="#132e65" stroke-width="1.5"></path><circle r="5" cx="-93.93" cy="684.5" fill="#132e65"></circle><circle r="5" cx="-47.22" cy="829.52" fill="#132e65"></circle><circle r="5" cx="-62.64" cy="967.89" fill="#132e65"></circle><circle r="5" cx="108.38" cy="506.96" fill="#132e65"></circle><circle r="5" cx="98.63" cy="686.98" fill="#132e65"></circle><circle r="5" cx="87.61" cy="819.66" fill="#132e65"></circle><circle r="5" cx="62.4" cy="1012.26" fill="#132e65"></circle><circle r="5" cx="224.4" cy="507.78" fill="#132e65"></circle><circle r="5" cx="189.39" cy="696.69" fill="#132e65"></circle><circle r="5" cx="200.02" cy="827.72" fill="#132e65"></circle><circle r="5" cx="239.3" cy="977.34" fill="#132e65"></circle><circle r="5" cx="406.32" cy="530.79" fill="#132e65"></circle><circle r="5" cx="364.92" cy="696.89" fill="#132e65"></circle><circle r="5" cx="363.49" cy="858.92" fill="#132e65"></circle><circle r="5" cx="382.57" cy="946.61" fill="#132e65"></circle><circle r="5" cx="488.81" cy="516.56" fill="#132e65"></circle><circle r="5" cx="561.5" cy="646.31" fill="#132e65"></circle><circle r="5" cx="523.82" cy="795.29" fill="#132e65"></circle><circle r="5" cx="497.09" cy="940.47" fill="#132e65"></circle><circle r="5" cx="651.05" cy="354.95" fill="#132e65"></circle><circle r="5" cx="710.04" cy="524.92" fill="#132e65"></circle><circle r="5" cx="705.37" cy="690.2" fill="#132e65"></circle><circle r="5" cx="711.89" cy="824.07" fill="#132e65"></circle><circle r="5" cx="690.88" cy="938.4" fill="#132e65"></circle><circle r="5" cx="842.89" cy="219.22" fill="#132e65"></circle><circle r="5" cx="858.11" cy="387.47" fill="#132e65"></circle><circle r="5" cx="829.38" cy="526.07" fill="#132e65"></circle><circle r="5" cx="810.3" cy="851.35" fill="#132e65"></circle><circle r="5" cx="862.44" cy="990.65" fill="#132e65"></circle><circle r="5" cx="975.4" cy="58.63" fill="#132e65"></circle><circle r="5" cx="1006.26" cy="248.27" fill="#132e65"></circle><circle r="5" cx="1007.18" cy="398.65" fill="#132e65"></circle><circle r="5" cx="955.92" cy="697.27" fill="#132e65"></circle><circle r="5" cx="948.57" cy="814.7" fill="#132e65"></circle><circle r="5" cx="990.59" cy="964.61" fill="#132e65"></circle><circle r="5" cx="1105.43" cy="-47.99" fill="#132e65"></circle><circle r="5" cx="1118.12" cy="44.58" fill="#132e65"></circle><circle r="5" cx="1128.58" cy="192.85" fill="#132e65"></circle><circle r="5" cx="1156.52" cy="340.94" fill="#132e65"></circle><circle r="5" cx="1110.45" cy="525.11" fill="#132e65"></circle><circle r="5" cx="1108.8" cy="709.5" fill="#132e65"></circle><circle r="5" cx="1103.9" cy="831.09" fill="#132e65"></circle><circle r="5" cx="1266.5" cy="73.88" fill="#132e65"></circle><circle r="5" cx="1245.63" cy="367.73" fill="#132e65"></circle><circle r="5" cx="1249.41" cy="508.58" fill="#132e65"></circle><circle r="5" cx="1279.95" cy="652.17" fill="#132e65"></circle><circle r="5" cx="1299.1" cy="831.12" fill="#132e65"></circle><circle r="5" cx="1241.17" cy="972.8" fill="#132e65"></circle><circle r="5" cx="1458.88" cy="-68.36" fill="#132e65"></circle><circle r="5" cx="1421.17" cy="87.53" fill="#132e65"></circle><circle r="5" cx="1421.27" cy="353.57" fill="#132e65"></circle><circle r="5" cx="1420.84" cy="548.16" fill="#132e65"></circle><circle r="5" cx="1394.32" cy="664.51" fill="#132e65"></circle><circle r="5" cx="1405.13" cy="788.18" fill="#132e65"></circle><circle r="5" cx="1402.04" cy="995.59" fill="#132e65"></circle><circle r="5" cx="1572.59" cy="-74.13" fill="#132e65"></circle><circle r="5" cx="1566.38" cy="49.57" fill="#132e65"></circle><circle r="5" cx="1606.4" cy="202.5" fill="#132e65"></circle><circle r="5" cx="1574.05" cy="641.53" fill="#132e65"></circle><circle r="5" cx="1562.72" cy="838.48" fill="#132e65"></circle><path d="M-44.51 856.29L-44.51 856.29" stroke="hsl(228.5, 77.2%, 51.5%)" stroke-width="1.5"></path><path d="M-44.51 856.29L-95.5 991.19" stroke="hsl(228.5, 77.2%, 51.5%)" stroke-width="1.5"></path><path d="M-44.51 856.29L95.02 794.09" stroke="hsl(228.5, 77.2%, 51.5%)" stroke-width="1.5"></path><path d="M-44.51 856.29L56.42 673.13" stroke="hsl(228.5, 77.2%, 51.5%)" stroke-width="1.5"></path><path d="M-44.51 856.29L-99.9 638.29" stroke="hsl(228.5, 77.2%, 51.5%)" stroke-width="1.5"></path><path d="M-44.51 856.29L190.11 1000.22" stroke="hsl(228.5, 77.2%, 51.5%)" stroke-width="1.5"></path><path d="M-44.51 856.29L196.1 679.33" stroke="hsl(228.5, 77.2%, 51.5%)" stroke-width="1.5"></path><path d="M-95.5 991.19L-95.5 991.19" stroke="hsl(228.5, 77.2%, 51.5%)" stroke-width="1.5"></path><path d="M-95.5 991.19L95.02 794.09" stroke="hsl(228.5, 77.2%, 51.5%)" stroke-width="1.5"></path><path d="M196.1 679.33L196.1 679.33" stroke="hsl(228.5, 77.2%, 51.5%)" stroke-width="1.5"></path><path d="M196.1 679.33L56.42 673.13" stroke="hsl(228.5, 77.2%, 51.5%)" stroke-width="1.5"></path><path d="M196.1 679.33L95.02 794.09" stroke="hsl(228.5, 77.2%, 51.5%)" stroke-width="1.5"></path><path d="M196.1 679.33L368.87 693.84" stroke="hsl(228.5, 77.2%, 51.5%)" stroke-width="1.5"></path><path d="M196.1 679.33L368.13 846.26" stroke="hsl(228.5, 77.2%, 51.5%)" stroke-width="1.5"></path><path d="M377.3 954.58L377.3 954.58" stroke="hsl(228.5, 77.2%, 51.5%)" stroke-width="1.5"></path><path d="M377.3 954.58L368.13 846.26" stroke="hsl(228.5, 77.2%, 51.5%)" stroke-width="1.5"></path><path d="M377.3 954.58L190.11 1000.22" stroke="hsl(228.5, 77.2%, 51.5%)" stroke-width="1.5"></path><path d="M377.3 954.58L368.87 693.84" stroke="hsl(228.5, 77.2%, 51.5%)" stroke-width="1.5"></path><path d="M377.3 954.58L696.32 941.93" stroke="hsl(228.5, 77.2%, 51.5%)" stroke-width="1.5"></path><path d="M377.3 954.58L95.02 794.09" stroke="hsl(228.5, 77.2%, 51.5%)" stroke-width="1.5"></path><path d="M860.81 851.25L860.81 851.25" stroke="hsl(228.5, 77.2%, 51.5%)" stroke-width="1.5"></path><path d="M860.81 851.25L944.15 842.05" stroke="hsl(228.5, 77.2%, 51.5%)" stroke-width="1.5"></path><path d="M860.81 851.25L803.23 953.88" stroke="hsl(228.5, 77.2%, 51.5%)" stroke-width="1.5"></path><path d="M860.81 851.25L791.99 708.16" stroke="hsl(228.5, 77.2%, 51.5%)" stroke-width="1.5"></path><path d="M860.81 851.25L1006.01 966.13" stroke="hsl(228.5, 77.2%, 51.5%)" stroke-width="1.5"></path><path d="M1089.8 556.04L1089.8 556.04" stroke="hsl(228.5, 77.2%, 51.5%)" stroke-width="1.5"></path><path d="M1089.8 556.04L1154.13 649.4" stroke="hsl(228.5, 77.2%, 51.5%)" stroke-width="1.5"></path><path d="M1089.8 556.04L972.87 550.47" stroke="hsl(228.5, 77.2%, 51.5%)" stroke-width="1.5"></path><path d="M1089.8 556.04L963.35 638.76" stroke="hsl(228.5, 77.2%, 51.5%)" stroke-width="1.5"></path><path d="M1089.8 556.04L1269.52 524.22" stroke="hsl(228.5, 77.2%, 51.5%)" stroke-width="1.5"></path><path d="M1089.8 556.04L1105.22 370.53" stroke="hsl(228.5, 77.2%, 51.5%)" stroke-width="1.5"></path><path d="M1089.8 556.04L991.89 347.98" stroke="hsl(228.5, 77.2%, 51.5%)" stroke-width="1.5"></path><path d="M1306.84 79.76L1306.84 79.76" stroke="hsl(228.5, 77.2%, 51.5%)" stroke-width="1.5"></path><path d="M1306.84 79.76L1269.64 197.06" stroke="hsl(228.5, 77.2%, 51.5%)" stroke-width="1.5"></path><path d="M1306.84 79.76L1284.48 -44.05" stroke="hsl(228.5, 77.2%, 51.5%)" stroke-width="1.5"></path><path d="M1306.84 79.76L1443.7 93.42" stroke="hsl(228.5, 77.2%, 51.5%)" stroke-width="1.5"></path><path d="M1443.7 93.42L1443.7 93.42" stroke="hsl(228.5, 77.2%, 51.5%)" stroke-width="1.5"></path><path d="M1443.7 93.42L1419.59 207.65" stroke="hsl(228.5, 77.2%, 51.5%)" stroke-width="1.5"></path><path d="M1443.7 93.42L1597.77 91.96" stroke="hsl(228.5, 77.2%, 51.5%)" stroke-width="1.5"></path><path d="M1443.7 93.42L1396.97 -58.17" stroke="hsl(228.5, 77.2%, 51.5%)" stroke-width="1.5"></path><path d="M1443.7 93.42L1603.75 193.92" stroke="hsl(228.5, 77.2%, 51.5%)" stroke-width="1.5"></path><path d="M1443.7 93.42L1576.99 -43.71" stroke="hsl(228.5, 77.2%, 51.5%)" stroke-width="1.5"></path><path d="M1394.9 662.54L1394.9 662.54" stroke="hsl(228.5, 77.2%, 51.5%)" stroke-width="1.5"></path><path d="M1394.9 662.54L1553.86 649.58" stroke="hsl(228.5, 77.2%, 51.5%)" stroke-width="1.5"></path><path d="M1394.9 662.54L1461.94 812.05" stroke="hsl(228.5, 77.2%, 51.5%)" stroke-width="1.5"></path><path d="M1394.9 662.54L1432.61 497.9" stroke="hsl(228.5, 77.2%, 51.5%)" stroke-width="1.5"></path><path d="M1461.94 812.05L1461.94 812.05" stroke="hsl(228.5, 77.2%, 51.5%)" stroke-width="1.5"></path><path d="M1461.94 812.05L1557.95 817.54" stroke="hsl(228.5, 77.2%, 51.5%)" stroke-width="1.5"></path><path d="M1603.75 193.92L1603.75 193.92" stroke="hsl(228.5, 77.2%, 51.5%)" stroke-width="1.5"></path><path d="M1603.75 193.92L1597.77 91.96" stroke="hsl(228.5, 77.2%, 51.5%)" stroke-width="1.5"></path><path d="M1603.75 193.92L1419.59 207.65" stroke="hsl(228.5, 77.2%, 51.5%)" stroke-width="1.5"></path><path d="M1611.62 384.01L1611.62 384.01" stroke="hsl(228.5, 77.2%, 51.5%)" stroke-width="1.5"></path><path d="M1611.62 384.01L1548.66 498.17" stroke="hsl(228.5, 77.2%, 51.5%)" stroke-width="1.5"></path><path d="M1611.62 384.01L1426.61 384.76" stroke="hsl(228.5, 77.2%, 51.5%)" stroke-width="1.5"></path><path d="M1611.62 384.01L1603.75 193.92" stroke="hsl(228.5, 77.2%, 51.5%)" stroke-width="1.5"></path><path d="M1548.66 498.17L1548.66 498.17" stroke="hsl(228.5, 77.2%, 51.5%)" stroke-width="1.5"></path><path d="M1548.66 498.17L1432.61 497.9" stroke="hsl(228.5, 77.2%, 51.5%)" stroke-width="1.5"></path><path d="M1548.66 498.17L1553.86 649.58" stroke="hsl(228.5, 77.2%, 51.5%)" stroke-width="1.5"></path><path d="M-99.9 638.29L-99.9 638.29" stroke="hsl(228.5, 77.2%, 51.5%)" stroke-width="1.5"></path><path d="M-99.9 638.29L56.42 673.13" stroke="hsl(228.5, 77.2%, 51.5%)" stroke-width="1.5"></path><path d="M-99.9 638.29L95.02 794.09" stroke="hsl(228.5, 77.2%, 51.5%)" stroke-width="1.5"></path><path d="M-99.9 638.29L196.1 679.33" stroke="hsl(228.5, 77.2%, 51.5%)" stroke-width="1.5"></path><path d="M56.42 673.13L56.42 673.13" stroke="hsl(228.5, 77.2%, 51.5%)" stroke-width="1.5"></path><path d="M56.42 673.13L95.02 794.09" stroke="hsl(228.5, 77.2%, 51.5%)" stroke-width="1.5"></path><path d="M95.02 794.09L95.02 794.09" stroke="hsl(228.5, 77.2%, 51.5%)" stroke-width="1.5"></path><path d="M95.02 794.09L190.11 1000.22" stroke="hsl(228.5, 77.2%, 51.5%)" stroke-width="1.5"></path><path d="M190.11 1000.22L190.11 1000.22" stroke="hsl(228.5, 77.2%, 51.5%)" stroke-width="1.5"></path><path d="M190.11 1000.22L368.13 846.26" stroke="hsl(228.5, 77.2%, 51.5%)" stroke-width="1.5"></path><path d="M190.11 1000.22L-95.5 991.19" stroke="hsl(228.5, 77.2%, 51.5%)" stroke-width="1.5"></path><path d="M368.87 693.84L368.87 693.84" stroke="hsl(228.5, 77.2%, 51.5%)" stroke-width="1.5"></path><path d="M368.87 693.84L368.13 846.26" stroke="hsl(228.5, 77.2%, 51.5%)" stroke-width="1.5"></path><path d="M368.13 846.26L368.13 846.26" stroke="hsl(228.5, 77.2%, 51.5%)" stroke-width="1.5"></path><path d="M368.13 846.26L554.89 671.36" stroke="hsl(228.5, 77.2%, 51.5%)" stroke-width="1.5"></path><path d="M554.89 671.36L554.89 671.36" stroke="hsl(228.5, 77.2%, 51.5%)" stroke-width="1.5"></path><path d="M554.89 671.36L672.32 687.98" stroke="hsl(228.5, 77.2%, 51.5%)" stroke-width="1.5"></path><path d="M554.89 671.36L368.87 693.84" stroke="hsl(228.5, 77.2%, 51.5%)" stroke-width="1.5"></path><path d="M554.89 671.36L791.99 708.16" stroke="hsl(228.5, 77.2%, 51.5%)" stroke-width="1.5"></path><path d="M554.89 671.36L800.47 496.75" stroke="hsl(228.5, 77.2%, 51.5%)" stroke-width="1.5"></path><path d="M554.89 671.36L696.32 941.93" stroke="hsl(228.5, 77.2%, 51.5%)" stroke-width="1.5"></path><path d="M672.32 687.98L672.32 687.98" stroke="hsl(228.5, 77.2%, 51.5%)" stroke-width="1.5"></path><path d="M672.32 687.98L791.99 708.16" stroke="hsl(228.5, 77.2%, 51.5%)" stroke-width="1.5"></path><path d="M696.32 941.93L696.32 941.93" stroke="hsl(228.5, 77.2%, 51.5%)" stroke-width="1.5"></path><path d="M696.32 941.93L803.23 953.88" stroke="hsl(228.5, 77.2%, 51.5%)" stroke-width="1.5"></path><path d="M696.32 941.93L860.81 851.25" stroke="hsl(228.5, 77.2%, 51.5%)" stroke-width="1.5"></path><path d="M800.47 496.75L800.47 496.75" stroke="hsl(228.5, 77.2%, 51.5%)" stroke-width="1.5"></path><path d="M800.47 496.75L972.87 550.47" stroke="hsl(228.5, 77.2%, 51.5%)" stroke-width="1.5"></path><path d="M791.99 708.16L791.99 708.16" stroke="hsl(228.5, 77.2%, 51.5%)" stroke-width="1.5"></path><path d="M791.99 708.16L963.35 638.76" stroke="hsl(228.5, 77.2%, 51.5%)" stroke-width="1.5"></path><path d="M791.99 708.16L944.15 842.05" stroke="hsl(228.5, 77.2%, 51.5%)" stroke-width="1.5"></path><path d="M791.99 708.16L800.47 496.75" stroke="hsl(228.5, 77.2%, 51.5%)" stroke-width="1.5"></path><path d="M803.23 953.88L803.23 953.88" stroke="hsl(228.5, 77.2%, 51.5%)" stroke-width="1.5"></path><path d="M803.23 953.88L944.15 842.05" stroke="hsl(228.5, 77.2%, 51.5%)" stroke-width="1.5"></path><path d="M991.89 347.98L991.89 347.98" stroke="hsl(228.5, 77.2%, 51.5%)" stroke-width="1.5"></path><path d="M991.89 347.98L1105.22 370.53" stroke="hsl(228.5, 77.2%, 51.5%)" stroke-width="1.5"></path><path d="M991.89 347.98L972.87 550.47" stroke="hsl(228.5, 77.2%, 51.5%)" stroke-width="1.5"></path><path d="M991.89 347.98L800.47 496.75" stroke="hsl(228.5, 77.2%, 51.5%)" stroke-width="1.5"></path><path d="M972.87 550.47L972.87 550.47" stroke="hsl(228.5, 77.2%, 51.5%)" stroke-width="1.5"></path><path d="M972.87 550.47L963.35 638.76" stroke="hsl(228.5, 77.2%, 51.5%)" stroke-width="1.5"></path><path d="M972.87 550.47L1154.13 649.4" stroke="hsl(228.5, 77.2%, 51.5%)" stroke-width="1.5"></path><path d="M972.87 550.47L1105.22 370.53" stroke="hsl(228.5, 77.2%, 51.5%)" stroke-width="1.5"></path><path d="M963.35 638.76L963.35 638.76" stroke="hsl(228.5, 77.2%, 51.5%)" stroke-width="1.5"></path><path d="M944.15 842.05L944.15 842.05" stroke="hsl(228.5, 77.2%, 51.5%)" stroke-width="1.5"></path><path d="M944.15 842.05L1006.01 966.13" stroke="hsl(228.5, 77.2%, 51.5%)" stroke-width="1.5"></path><path d="M1006.01 966.13L1006.01 966.13" stroke="hsl(228.5, 77.2%, 51.5%)" stroke-width="1.5"></path><path d="M1006.01 966.13L1117.64 981.65" stroke="hsl(228.5, 77.2%, 51.5%)" stroke-width="1.5"></path><path d="M1105.22 370.53L1105.22 370.53" stroke="hsl(228.5, 77.2%, 51.5%)" stroke-width="1.5"></path><path d="M1105.22 370.53L1269.52 524.22" stroke="hsl(228.5, 77.2%, 51.5%)" stroke-width="1.5"></path><path d="M1154.13 649.4L1154.13 649.4" stroke="hsl(228.5, 77.2%, 51.5%)" stroke-width="1.5"></path><path d="M1088.92 854.75L1088.92 854.75" stroke="hsl(228.5, 77.2%, 51.5%)" stroke-width="1.5"></path><path d="M1088.92 854.75L1117.64 981.65" stroke="hsl(228.5, 77.2%, 51.5%)" stroke-width="1.5"></path><path d="M1088.92 854.75L1006.01 966.13" stroke="hsl(228.5, 77.2%, 51.5%)" stroke-width="1.5"></path><path d="M1088.92 854.75L944.15 842.05" stroke="hsl(228.5, 77.2%, 51.5%)" stroke-width="1.5"></path><path d="M1117.64 981.65L1117.64 981.65" stroke="hsl(228.5, 77.2%, 51.5%)" stroke-width="1.5"></path><path d="M1284.48 -44.05L1284.48 -44.05" stroke="hsl(228.5, 77.2%, 51.5%)" stroke-width="1.5"></path><path d="M1284.48 -44.05L1396.97 -58.17" stroke="hsl(228.5, 77.2%, 51.5%)" stroke-width="1.5"></path><path d="M1284.48 -44.05L1443.7 93.42" stroke="hsl(228.5, 77.2%, 51.5%)" stroke-width="1.5"></path><path d="M1284.48 -44.05L1269.64 197.06" stroke="hsl(228.5, 77.2%, 51.5%)" stroke-width="1.5"></path><path d="M1269.64 197.06L1269.64 197.06" stroke="hsl(228.5, 77.2%, 51.5%)" stroke-width="1.5"></path><path d="M1269.64 197.06L1419.59 207.65" stroke="hsl(228.5, 77.2%, 51.5%)" stroke-width="1.5"></path><path d="M1269.64 197.06L1443.7 93.42" stroke="hsl(228.5, 77.2%, 51.5%)" stroke-width="1.5"></path><path d="M1269.64 197.06L1105.22 370.53" stroke="hsl(228.5, 77.2%, 51.5%)" stroke-width="1.5"></path><path d="M1269.52 524.22L1269.52 524.22" stroke="hsl(228.5, 77.2%, 51.5%)" stroke-width="1.5"></path><path d="M1269.52 524.22L1432.61 497.9" stroke="hsl(228.5, 77.2%, 51.5%)" stroke-width="1.5"></path><path d="M1269.52 524.22L1154.13 649.4" stroke="hsl(228.5, 77.2%, 51.5%)" stroke-width="1.5"></path><path d="M1260.11 800.55L1260.11 800.55" stroke="hsl(228.5, 77.2%, 51.5%)" stroke-width="1.5"></path><path d="M1260.11 800.55L1088.92 854.75" stroke="hsl(228.5, 77.2%, 51.5%)" stroke-width="1.5"></path><path d="M1260.11 800.55L1154.13 649.4" stroke="hsl(228.5, 77.2%, 51.5%)" stroke-width="1.5"></path><path d="M1260.11 800.55L1394.9 662.54" stroke="hsl(228.5, 77.2%, 51.5%)" stroke-width="1.5"></path><path d="M1260.11 800.55L1461.94 812.05" stroke="hsl(228.5, 77.2%, 51.5%)" stroke-width="1.5"></path><path d="M1396.97 -58.17L1396.97 -58.17" stroke="hsl(228.5, 77.2%, 51.5%)" stroke-width="1.5"></path><path d="M1396.97 -58.17L1306.84 79.76" stroke="hsl(228.5, 77.2%, 51.5%)" stroke-width="1.5"></path><path d="M1419.59 207.65L1419.59 207.65" stroke="hsl(228.5, 77.2%, 51.5%)" stroke-width="1.5"></path><path d="M1419.59 207.65L1306.84 79.76" stroke="hsl(228.5, 77.2%, 51.5%)" stroke-width="1.5"></path><path d="M1419.59 207.65L1426.61 384.76" stroke="hsl(228.5, 77.2%, 51.5%)" stroke-width="1.5"></path><path d="M1419.59 207.65L1597.77 91.96" stroke="hsl(228.5, 77.2%, 51.5%)" stroke-width="1.5"></path><path d="M1426.61 384.76L1426.61 384.76" stroke="hsl(228.5, 77.2%, 51.5%)" stroke-width="1.5"></path><path d="M1426.61 384.76L1432.61 497.9" stroke="hsl(228.5, 77.2%, 51.5%)" stroke-width="1.5"></path><path d="M1426.61 384.76L1548.66 498.17" stroke="hsl(228.5, 77.2%, 51.5%)" stroke-width="1.5"></path><path d="M1432.61 497.9L1432.61 497.9" stroke="hsl(228.5, 77.2%, 51.5%)" stroke-width="1.5"></path><path d="M1576.99 -43.71L1576.99 -43.71" stroke="hsl(228.5, 77.2%, 51.5%)" stroke-width="1.5"></path><path d="M1576.99 -43.71L1597.77 91.96" stroke="hsl(228.5, 77.2%, 51.5%)" stroke-width="1.5"></path><path d="M1576.99 -43.71L1396.97 -58.17" stroke="hsl(228.5, 77.2%, 51.5%)" stroke-width="1.5"></path><path d="M1597.77 91.96L1597.77 91.96" stroke="hsl(228.5, 77.2%, 51.5%)" stroke-width="1.5"></path><path d="M1553.86 649.58L1553.86 649.58" stroke="hsl(228.5, 77.2%, 51.5%)" stroke-width="1.5"></path><path d="M1557.95 817.54L1557.95 817.54" stroke="hsl(228.5, 77.2%, 51.5%)" stroke-width="1.5"></path><path d="M1557.95 817.54L1608.94 939.69" stroke="hsl(228.5, 77.2%, 51.5%)" stroke-width="1.5"></path><path d="M1557.95 817.54L1553.86 649.58" stroke="hsl(228.5, 77.2%, 51.5%)" stroke-width="1.5"></path><path d="M1557.95 817.54L1394.9 662.54" stroke="hsl(228.5, 77.2%, 51.5%)" stroke-width="1.5"></path><path d="M1557.95 817.54L1260.11 800.55" stroke="hsl(228.5, 77.2%, 51.5%)" stroke-width="1.5"></path><path d="M1557.95 817.54L1548.66 498.17" stroke="hsl(228.5, 77.2%, 51.5%)" stroke-width="1.5"></path><path d="M1608.94 939.69L1608.94 939.69" stroke="hsl(228.5, 77.2%, 51.5%)" stroke-width="1.5"></path><path d="M1608.94 939.69L1461.94 812.05" stroke="hsl(228.5, 77.2%, 51.5%)" stroke-width="1.5"></path><path d="M1608.94 939.69L1553.86 649.58" stroke="hsl(228.5, 77.2%, 51.5%)" stroke-width="1.5"></path><path d="M1608.94 939.69L1394.9 662.54" stroke="hsl(228.5, 77.2%, 51.5%)" stroke-width="1.5"></path><circle r="25" cx="-44.51" cy="856.29" fill="url(#SvgjsRadialGradient1322)"></circle><circle r="25" cx="-95.5" cy="991.19" fill="url(#SvgjsRadialGradient1322)"></circle><circle r="25" cx="196.1" cy="679.33" fill="url(#SvgjsRadialGradient1322)"></circle><circle r="25" cx="377.3" cy="954.58" fill="url(#SvgjsRadialGradient1322)"></circle><circle r="25" cx="860.81" cy="851.25" fill="url(#SvgjsRadialGradient1322)"></circle><circle r="25" cx="1089.8" cy="556.04" fill="url(#SvgjsRadialGradient1322)"></circle><circle r="25" cx="1306.84" cy="79.76" fill="url(#SvgjsRadialGradient1322)"></circle><circle r="25" cx="1443.7" cy="93.42" fill="url(#SvgjsRadialGradient1322)"></circle><circle r="25" cx="1394.9" cy="662.54" fill="url(#SvgjsRadialGradient1322)"></circle><circle r="25" cx="1461.94" cy="812.05" fill="url(#SvgjsRadialGradient1322)"></circle><circle r="25" cx="1603.75" cy="193.92" fill="url(#SvgjsRadialGradient1322)"></circle><circle r="25" cx="1611.62" cy="384.01" fill="url(#SvgjsRadialGradient1322)"></circle><circle r="25" cx="1548.66" cy="498.17" fill="url(#SvgjsRadialGradient1322)"></circle><circle r="5" cx="-99.9" cy="638.29" fill="#8b9ad9"></circle><circle r="5" cx="56.42" cy="673.13" fill="#8b9ad9"></circle><circle r="5" cx="95.02" cy="794.09" fill="#8b9ad9"></circle><circle r="5" cx="190.11" cy="1000.22" fill="#8b9ad9"></circle><circle r="5" cx="368.87" cy="693.84" fill="#8b9ad9"></circle><circle r="5" cx="368.13" cy="846.26" fill="#8b9ad9"></circle><circle r="5" cx="554.89" cy="671.36" fill="#8b9ad9"></circle><circle r="5" cx="672.32" cy="687.98" fill="#8b9ad9"></circle><circle r="5" cx="696.32" cy="941.93" fill="#8b9ad9"></circle><circle r="5" cx="800.47" cy="496.75" fill="#8b9ad9"></circle><circle r="5" cx="791.99" cy="708.16" fill="#8b9ad9"></circle><circle r="5" cx="803.23" cy="953.88" fill="#8b9ad9"></circle><circle r="5" cx="991.89" cy="347.98" fill="#8b9ad9"></circle><circle r="5" cx="972.87" cy="550.47" fill="#8b9ad9"></circle><circle r="5" cx="963.35" cy="638.76" fill="#8b9ad9"></circle><circle r="5" cx="944.15" cy="842.05" fill="#8b9ad9"></circle><circle r="5" cx="1006.01" cy="966.13" fill="#8b9ad9"></circle><circle r="5" cx="1105.22" cy="370.53" fill="#8b9ad9"></circle><circle r="5" cx="1154.13" cy="649.4" fill="#8b9ad9"></circle><circle r="5" cx="1088.92" cy="854.75" fill="#8b9ad9"></circle><circle r="5" cx="1117.64" cy="981.65" fill="#8b9ad9"></circle><circle r="5" cx="1284.48" cy="-44.05" fill="#8b9ad9"></circle><circle r="5" cx="1269.64" cy="197.06" fill="#8b9ad9"></circle><circle r="5" cx="1269.52" cy="524.22" fill="#8b9ad9"></circle><circle r="5" cx="1260.11" cy="800.55" fill="#8b9ad9"></circle><circle r="5" cx="1396.97" cy="-58.17" fill="#8b9ad9"></circle><circle r="5" cx="1419.59" cy="207.65" fill="#8b9ad9"></circle><circle r="5" cx="1426.61" cy="384.76" fill="#8b9ad9"></circle><circle r="5" cx="1432.61" cy="497.9" fill="#8b9ad9"></circle><circle r="5" cx="1576.99" cy="-43.71" fill="#8b9ad9"></circle><circle r="5" cx="1597.77" cy="91.96" fill="#8b9ad9"></circle><circle r="5" cx="1553.86" cy="649.58" fill="#8b9ad9"></circle><circle r="5" cx="1557.95" cy="817.54" fill="#8b9ad9"></circle><circle r="5" cx="1608.94" cy="939.69" fill="#8b9ad9"></circle></g><defs><mask id="SvgjsMask1320"><rect width="1440" height="800" fill="#ffffff"></rect></mask><linearGradient x1="11.11%" y1="-20%" x2="88.89%" y2="120%" gradientUnits="userSpaceOnUse" id="SvgjsLinearGradient1321"><stop stop-color="#0e2a47" offset="0"></stop><stop stop-color="rgba(0, 69, 158, 1)" offset="1"></stop></linearGradient><radialGradient id="SvgjsRadialGradient1322"><stop stop-color="#ffffff" offset="0.1"></stop><stop stop-color="#1735b3" offset="0.2"></stop><stop stop-color="rgba(23, 53, 179, 0)" offset="1"></stop></radialGradient></defs></svg>